<svg xmlns="http://www.w3.org/2000/svg" width="30" height="30" fill="none" viewBox="0 0 30 30"><g clip-path="url(#clip0_11335_6245)"><mask id="mask0_11335_6245" style="mask-type:luminance" width="30" height="30" x="0" y="0" maskUnits="userSpaceOnUse"><path fill="#fff" d="M30 0H0V30H30V0Z"/></mask><g mask="url(#mask0_11335_6245)"><path fill="#F34242" d="M11.25 11.25H7.5V7.5H11.25V11.25Z" opacity=".75"/><path fill="#F34242" d="M11.25 15H7.5V11.25H11.25V15Z"/><path fill="#F34242" d="M11.25 18.75H7.5V15H11.25V18.75Z"/><path fill="#F34242" d="M11.25 22.5H7.5V18.75H11.25V22.5Z" opacity=".75"/><path fill="#F34242" d="M22.5 11.25H18.75V7.5H22.5V11.25Z" opacity=".75"/><path fill="#F34242" d="M22.5 15H18.75V11.25H22.5V15Z"/><path fill="#F34242" d="M22.5 18.75H18.75V15H22.5V18.75Z"/><path fill="#F34242" d="M22.5 22.5H18.75V18.75H22.5V22.5Z" opacity=".75"/><path fill="#F34242" d="M15 22.5H11.25V18.75H15V22.5Z"/><path fill="#F34242" d="M18.75 22.5H15V18.75H18.75V22.5Z"/><path fill="#F34242" d="M15 11.25H11.25V7.5H15V11.25Z"/><path fill="#F34242" d="M18.75 11.25H15V7.5H18.75V11.25Z"/><path fill="#F34242" fill-opacity=".25" d="M15 0H11.25V3.75H15V0Z"/><path fill="#F34242" fill-opacity=".75" d="M18.75 26.25H15V22.5H18.75V26.25Z"/><path fill="#F34242" fill-opacity=".75" d="M26.25 15H22.5V18.75H26.25V15Z"/><path fill="#F34242" fill-opacity=".75" d="M7.5 18.75H3.75V15H7.5V18.75Z"/><path fill="#F34242" fill-opacity=".75" d="M18.75 3.75H15V7.5H18.75V3.75Z"/><path fill="#F34242" fill-opacity=".25" d="M18.75 0H15V3.75H18.75V0Z"/><path fill="#F34242" fill-opacity=".25" d="M15 30H11.25V26.25H15V30Z"/><path fill="#F34242" fill-opacity=".25" d="M18.75 30H15V26.25H18.75V30Z"/><path fill="#F34242" fill-opacity=".25" d="M30 11.25H26.25V15H30V11.25Z"/><path fill="#F34242" fill-opacity=".25" d="M30 15H26.25V18.75H30V15Z"/><path fill="#F34242" fill-opacity=".25" d="M3.75 18.75H0V15H3.75V18.75Z"/><path fill="#F34242" fill-opacity=".25" d="M3.75 15H0V11.25H3.75V15Z"/><path fill="#F34242" fill-opacity=".75" d="M15 3.75H11.25V7.5H15V3.75Z"/><path fill="#F34242" fill-opacity=".75" d="M15 26.25H11.25V22.5H15V26.25Z"/><path fill="#F34242" fill-opacity=".75" d="M26.25 11.25H22.5V15H26.25V11.25Z"/><path fill="#F34242" fill-opacity=".75" d="M7.5 15H3.75V11.25H7.5V15Z"/></g></g><defs><clipPath id="clip0_11335_6245"><rect width="30" height="30" fill="#fff"/></clipPath></defs></svg>